<?xml version="1.0" encoding="utf-8"?>
<!-- Generator: Adobe Illustrator 18.1.1, SVG Export Plug-In . SVG Version: 6.00 Build 0)  -->
<!DOCTYPE svg PUBLIC "-//W3C//DTD SVG 1.1//EN" "http://www.w3.org/Graphics/SVG/1.1/DTD/svg11.dtd">
<svg version="1.1" id="Layer_1" xmlns="http://www.w3.org/2000/svg" xmlns:xlink="http://www.w3.org/1999/xlink" x="0px" y="0px"
	 viewBox="0 0 72 72" enable-background="new 0 0 72 72" xml:space="preserve">
<g>
	<g>
		<path fill="#B79776" d="M-0.3,19.5c6.5,2.4,11.7-1.8,15.9-6.4c3-3.2,5.9-7.1,10.6-7.4c2.8-0.2,5.9,0.9,7.3,3.6
			c1.4,2.3,0.7,4.1-2.1,5.5c-1.2,0.6-2.4,0.5-3.7-0.4c2.6-1.2,0.7-5.8-2-4.7c-5.2,2.1-4.4,8.9,0.9,10.5c6.3,1.9,13.9-3.3,12.8-10.1
			c-1.1-7.1-9.2-10.8-15.8-9.1C13.9,3.3,10.8,18.2,0,17.1C-1.4,17-1.5,19-0.3,19.5L-0.3,19.5z"/>
	</g>
</g>
<g>
	<g>
		<path fill="#B79776" d="M9.6,22.9c2.2-0.7,4.9-1.3,7.2-0.6c2.5,0.8,3.9,3.4,3.3,6c-0.6,2.2-2.7,4.2-5,4.3c-1.4,0.1-2.9-0.5-3.3-2
			c-0.4-1.4,0.7-2.5,2.1-1.9c1.7,0.7,3.9-1.4,2.2-2.8c-3.7-3.2-9,0.7-8.2,5.2c1,5.5,7.5,6.7,11.7,4c4.3-2.7,6.1-8.5,3.2-12.9
			c-3.3-5-9.6-3.4-13.9-0.7C8.2,21.9,8.7,23.1,9.6,22.9L9.6,22.9z"/>
	</g>
</g>
<g>
	<g>
		<path fill="#B79776" d="M30.3,17.7c3.2,11.4,20,17.8,30.5,14C71.9,27.6,76,13.4,66.9,5C63.1,1.5,57.1-0.5,52,1.2
			c-5.5,1.9-8.9,8.5-7.8,14.1c0.9,4.9,5.1,9.2,10.3,9.1c5.2-0.1,9.6-4.9,8.2-10c-0.7-2.8-4.2-2.3-5.1,0c-0.8,2-1.8,3.3-3.9,3.1
			c-2.3-0.2-3.3-2.5-3.3-4.6c0.1-4.8,4.8-7.3,9-6c7.1,2.2,10,11.3,4.8,16.8C54.3,34.4,40,24,32.1,16.7C31.3,16,30,16.6,30.3,17.7
			L30.3,17.7z"/>
	</g>
</g>
<g>
	<g>
		<path fill="#B79776" d="M70.1,59.9c-2.7,5.5-10.7,9.7-16.1,4.9c-3.2-2.8-1.6-8.3-4.8-11.5c-4.8-4.7-13.3-3.7-16,2.8
			c-2.2,5.3,1.7,12.5,8,11.6c5-0.7,7.8-9,1.7-10.1c-1.7-0.3-3.1,1.6-1.7,3c-2.1,2.6-3.3,2.7-3.7,0.3c-0.7-0.9-0.8-1.8-0.2-2.8
			c0.6-2.7,3.6-3.9,6.2-3.2c4.4,1.2,3.4,5.5,4.5,8.9c1.2,3.7,4.4,6.3,8.2,7.2c6.4,1.5,17.6-2.6,15.2-10.8
			C71.1,59.5,70.3,59.3,70.1,59.9L70.1,59.9z"/>
	</g>
</g>
<g>
	<g>
		<path fill="#B79776" d="M51.7,57.2c2.7-1.2,5.2,1.7,8,1.4c2-0.2,3.6-1.6,4.5-3.2c2.4-4.2,0-9.1-3.7-11.6
			c-3.4-2.2-9.3-2.5-10.6,2.3c-1.3,4.7,3.5,9.1,7.6,5.8c0.5-0.4,0.7-1.3,0.5-1.9c0-0.1-0.1-0.2-0.1-0.3c-0.2-0.6-0.8-1.1-1.4-1.1
			c-1,0-2.2,1.2-2.4-0.5c-0.2-1.7,1.8-1.5,2.8-1.1c2.3,0.7,4.6,2.9,4.4,5.4c-0.4,6.1-8.1-0.3-10.1,4.3C50.9,57,51.3,57.4,51.7,57.2
			L51.7,57.2z"/>
	</g>
</g>
<g>
	<g>
		<path fill="#B79776" d="M36.5,55.1c3-4.8,2-10.9-1.7-15.1c-4.6-5.2-12-6.3-18.6-5.4c-6.7,1-12.5,4.2-15,10.8c-2.4,6.3-1,13.6,3,19
			c3.5,4.7,8.9,7.9,14.9,7c6.3-1,10.8-6.4,10.4-12.8c-0.4-5.8-5.8-10.8-11.7-10.1c-5.3,0.6-9.3,7.1-6.2,11.8
			c1.2,1.8,4.7,1.9,5.1-0.7c0.3-1.7,0.2-4.1,2.6-4.6c2-0.4,3.4,2.8,3.5,4.2c0.3,4.3-4.1,6.5-7.8,5.5c-6.5-1.7-9.9-10.5-8.2-16.4
			c2-7.1,11-9.1,17.5-8c6.9,1.2,11.3,7.3,10.5,14.1C34.7,55.6,36.1,55.8,36.5,55.1L36.5,55.1z"/>
	</g>
</g>
<g>
	<g>
		<path fill="#B79776" d="M38.8,34.8c2.2-0.7,4.9-1.3,7.2-0.6c2.5,0.8,3.9,3.4,3.3,6c-0.6,2.2-2.7,4.2-5,4.3c-1.4,0.1-2.9-0.5-3.3-2
			c-0.4-1.4,0.7-2.5,2.1-1.9c1.7,0.7,3.9-1.4,2.2-2.8c-3.7-3.2-9,0.7-8.2,5.2c1,5.5,7.5,6.7,11.7,4c4.3-2.7,6.1-8.5,3.2-12.9
			c-3.3-5-9.6-3.4-13.9-0.7C37.4,33.8,37.9,35.1,38.8,34.8L38.8,34.8z"/>
	</g>
</g>
</svg>
