<?xml version="1.0" encoding="utf-8"?>
<!-- Generator: Adobe Illustrator 18.1.1, SVG Export Plug-In . SVG Version: 6.00 Build 0)  -->
<!DOCTYPE svg PUBLIC "-//W3C//DTD SVG 1.1//EN" "http://www.w3.org/Graphics/SVG/1.1/DTD/svg11.dtd">
<svg version="1.1" id="Layer_1" xmlns="http://www.w3.org/2000/svg" xmlns:xlink="http://www.w3.org/1999/xlink" x="0px" y="0px"
	 viewBox="0 0 416.8 277.8" enable-background="new 0 0 416.8 277.8" xml:space="preserve">
<g>
	<path fill="#FFFFFF" d="M13.4,161.4H0v-12.7h39.4v12.7H26v71H13.4V161.4z"/>
	<path fill="#FFFFFF" d="M95.7,148.8h13.2l-13.1,83.6h-12l-7.2-46l-6.7,46H57.8l-14-83.6H57l6.6,44.8l6.1-44.8h13.2l6.6,44.7
		L95.7,148.8z"/>
	<path fill="#FFFFFF" d="M127.5,232.4h-12.6v-83.6h12.6V232.4z"/>
	<path fill="#FFFFFF" d="M150.6,148.7l16.7,56.3v-56.3h12.6v83.7h-13.5L149,178.8v53.6h-12.6v-83.7H150.6z"/>
	<path fill="#FFFFFF" d="M222.8,232.4h-12.6v-83.7h35.9v12.7h-23.3v22.8h17v12.7h-17V232.4z"/>
	<path fill="#FFFFFF" d="M266.5,232.4h-12.6v-83.6h12.6V232.4z"/>
	<path fill="#FFFFFF" d="M290.5,148.7l16.7,56.3v-56.3h12.6v83.7h-13.6L289,178.8v53.6h-12.6v-83.7H290.5z"/>
	<path fill="#FFFFFF" d="M347.3,233.5c-5.6,0-10.3-1.9-14.2-5.8c-3.9-3.9-5.8-8.6-5.8-14.1v-45.7c0-5.6,2-10.3,5.9-14.2
		c3.9-3.9,8.6-5.8,14.2-5.8c5.6,0,10.3,2,14.2,5.9c3.9,3.9,5.8,8.6,5.8,14.2v9.5h-13.1v-9.8c0-2-0.7-3.7-2.1-5.1
		c-1.4-1.4-3.1-2.1-5.1-2.1c-2,0-3.7,0.7-5.1,2.1c-1.4,1.4-2.1,3.1-2.1,5.1v45.8c0,2,0.7,3.7,2.1,5.1c1.4,1.4,3.1,2.1,5.1,2.1
		c2,0,3.7-0.7,5.1-2.1c1.4-1.4,2.1-3.1,2.1-5.1v-11.5h13.1v11.7c0,5.6-2,10.3-5.9,14.2C357.4,231.5,352.7,233.5,347.3,233.5z"/>
	<path fill="#FFFFFF" d="M387.4,196.9v35.4h-12.6v-83.6h12.6v35.5h15.2v-35.5h12.6v83.6h-12.6v-35.4H387.4z"/>
</g>
<g>
	<path fill="#FFFFFF" d="M134.2,268.7c0.7,0.6,1.3,1.3,1.8,2.1c0.5,0.8,0.9,1.6,1.2,2.4c0.3,0.8,0.6,1.7,0.7,2.5
		c0.1,0.8,0.2,1.6,0.2,2.4h-2.7h-2.7c0-0.2,0-0.5-0.1-0.8c0-0.4-0.1-0.8-0.2-1.3c-0.1-0.5-0.3-1-0.5-1.5c-0.2-0.5-0.6-1-1-1.4
		s-0.9-0.8-1.6-1c-0.6-0.3-1.4-0.4-2.3-0.4h-6.5v6.5h-5.4v-26.5h11.9c0.1,0,0.4,0,0.8,0.1c0.4,0,1,0.1,1.6,0.3
		c0.6,0.2,1.3,0.5,2,0.8c0.7,0.4,1.4,0.9,2.1,1.6c2,2,3,4.7,3,8.2c0,1.4-0.2,2.6-0.6,3.6C135.5,267.2,134.9,268,134.2,268.7z
		 M127.1,266.2c0.3,0,0.7,0,1.1-0.1c0.5-0.1,0.9-0.3,1.3-0.5c0.4-0.3,0.8-0.6,1.1-1.1c0.3-0.5,0.5-1.1,0.5-1.9c0-1.2-0.2-2.2-0.5-3
		c-0.3-0.7-0.7-1.3-1.2-1.7c-0.4-0.4-0.9-0.6-1.4-0.7c-0.5-0.1-0.8-0.2-1-0.2h-6.5v9.1H127.1z"/>
	<path fill="#FFFFFF" d="M153.3,278.1c-1.8,0-3.5-0.3-5.1-1c-1.6-0.7-3-1.6-4.2-2.8c-1.2-1.2-2.1-2.6-2.8-4.2c-0.7-1.6-1-3.3-1-5.1
		s0.3-3.5,1-5.1c0.7-1.6,1.6-3,2.8-4.2c1.2-1.2,2.6-2.2,4.2-2.9c1.6-0.7,3.3-1,5.1-1c1.8,0,3.5,0.3,5.1,1c1.6,0.7,3,1.6,4.2,2.9
		c1.2,1.2,2.1,2.6,2.8,4.2c0.7,1.6,1,3.3,1,5.1s-0.3,3.5-1,5.1c-0.7,1.6-1.6,3-2.8,4.2c-1.2,1.2-2.6,2.2-4.2,2.8
		C156.8,277.8,155.1,278.1,153.3,278.1z M153.3,257.1c-1.1,0-2.1,0.2-3,0.6c-0.9,0.4-1.8,1-2.5,1.7c-0.7,0.7-1.3,1.5-1.7,2.5
		c-0.4,0.9-0.6,1.9-0.6,3s0.2,2.1,0.6,3c0.4,0.9,1,1.8,1.7,2.5c0.7,0.7,1.5,1.3,2.5,1.7c0.9,0.4,1.9,0.6,3,0.6c1.1,0,2.1-0.2,3-0.6
		c0.9-0.4,1.8-1,2.5-1.7c0.7-0.7,1.3-1.5,1.7-2.5c0.4-0.9,0.6-1.9,0.6-3s-0.2-2.1-0.6-3c-0.4-0.9-1-1.8-1.7-2.5
		c-0.7-0.7-1.5-1.3-2.5-1.7C155.4,257.3,154.4,257.1,153.3,257.1z"/>
	<path fill="#FFFFFF" d="M186.3,278.1l-1.4-3.9h-10.7l-1.4,3.9h-6l9.5-26.5h6.5l9.5,26.5H186.3z M176.2,268.8h6.8l-3.4-9.5
		L176.2,268.8z"/>
	<path fill="#FFFFFF" d="M203.8,278.4c-1.3,0-2.6-0.2-3.8-0.7c-1.2-0.4-2.2-1-3.1-1.7c-0.9-0.7-1.6-1.6-2.1-2.5
		c-0.5-1-0.8-2-0.8-3.1h5.5c0,0.2,0.1,0.5,0.3,0.8c0.2,0.3,0.5,0.6,0.9,0.8c0.4,0.3,0.8,0.5,1.4,0.7c0.5,0.2,1.1,0.3,1.8,0.3
		c1.1,0,1.9-0.1,2.6-0.4c0.6-0.3,1.1-0.5,1.4-0.8c0.3-0.3,0.6-0.7,0.7-1.2c0-0.3,0-0.6-0.1-0.9c0-0.3-0.2-0.6-0.3-0.8
		c-0.3-0.4-0.9-0.7-1.7-1c-0.8-0.2-1.8-0.3-3-0.3c-0.9,0-1.7-0.1-2.5-0.3c-0.7-0.2-1.4-0.4-1.9-0.6c-0.6-0.3-1-0.5-1.4-0.8
		c-0.4-0.3-0.7-0.6-1-0.9c-0.5-0.6-0.9-1.2-1.2-1.8c-0.3-0.6-0.5-1.2-0.6-1.8c-0.1-0.6-0.2-1.1-0.2-1.5c0-0.4,0-0.7,0-0.9
		c0-0.2,0-0.4,0.1-0.8c0-0.4,0.1-0.8,0.3-1.2c0.2-0.5,0.4-0.9,0.6-1.5c0.3-0.5,0.7-1,1.1-1.5c1.8-1.8,4.2-2.6,7.3-2.6
		c3.1,0,5.5,0.9,7.2,2.7c0.6,0.6,1.1,1.3,1.4,1.9s0.6,1.3,0.7,1.9c0.1,0.6,0.2,1.1,0.3,1.5c0,0.4,0,0.7,0,0.8l-5.5-0.2v0.1
		c0-0.3,0-0.6-0.1-1c-0.1-0.4-0.3-0.7-0.6-1c-0.3-0.3-0.7-0.6-1.3-0.8c-0.6-0.2-1.3-0.3-2.2-0.3c-0.9,0-1.6,0.1-2.1,0.3
		c-0.5,0.2-0.9,0.4-1.2,0.6c-0.3,0.2-0.5,0.5-0.6,0.8c-0.1,0.3-0.1,0.5-0.1,0.7v0.3l0,0c0,0.2,0,0.5,0.1,0.7c0,0.2,0.1,0.4,0.2,0.6
		c0.1,0.2,0.2,0.4,0.4,0.6c0.6,0.6,1.5,0.8,2.8,0.8c3.4,0,6,0.7,7.9,2.2c1.9,1.5,2.8,3.6,2.8,6.3c0,0.8-0.2,1.6-0.6,2.5
		c-0.4,0.9-1,1.8-1.8,2.6c-0.8,0.8-1.9,1.5-3.2,2C207.3,278.1,205.7,278.4,203.8,278.4z"/>
	<path fill="#FFFFFF" d="M235.1,257.2H229v21h-5.5v-21h-6.1v-5.5h17.8V257.2z"/>
	<path fill="#FFFFFF" d="M245.2,257.2v5.4h11.9v5.5h-11.9v4.5h12.4v5.5h-17.9v-26.4h17.9v5.5H245.2z"/>
	<path fill="#FFFFFF" d="M282.8,268.7c0.7,0.6,1.3,1.3,1.8,2.1c0.5,0.8,0.9,1.6,1.2,2.4c0.3,0.8,0.6,1.7,0.7,2.5
		c0.1,0.8,0.2,1.6,0.2,2.4H284h-2.7c0-0.2,0-0.5-0.1-0.8c0-0.4-0.1-0.8-0.2-1.3c-0.1-0.5-0.3-1-0.5-1.5c-0.2-0.5-0.6-1-1-1.4
		c-0.4-0.4-0.9-0.8-1.6-1c-0.6-0.3-1.4-0.4-2.3-0.4h-6.5v6.5h-5.4v-26.5h11.9c0.1,0,0.4,0,0.8,0.1c0.4,0,1,0.1,1.6,0.3
		c0.6,0.2,1.3,0.5,2,0.8c0.7,0.4,1.4,0.9,2.1,1.6c2,2,3,4.7,3,8.2c0,1.4-0.2,2.6-0.6,3.6C284,267.2,283.4,268,282.8,268.7z
		 M275.6,266.2c0.3,0,0.7,0,1.1-0.1c0.5-0.1,0.9-0.3,1.3-0.5c0.4-0.3,0.8-0.6,1.1-1.1c0.3-0.5,0.5-1.1,0.5-1.9c0-1.2-0.2-2.2-0.5-3
		c-0.3-0.7-0.7-1.3-1.2-1.7c-0.4-0.4-0.9-0.6-1.4-0.7c-0.5-0.1-0.8-0.2-1-0.2h-6.5v9.1H275.6z"/>
	<path fill="#FFFFFF" d="M300.4,269.7v8.4h-5.5v-8.3l-8.4-18.1h6l5.3,12.8l5.3-12.8h5.9L300.4,269.7z"/>
</g>
<rect x="0.6" y="263.3" fill="#FFFFFF" width="105" height="1.5"/>
<rect x="311.6" y="263.3" fill="#FFFFFF" width="105.2" height="1.5"/>
<rect x="0.6" y="130.4" fill="#FFFFFF" width="416.2" height="1.5"/>
<rect x="0.6" y="125" fill="#FFFFFF" width="416.2" height="3"/>
<g>
	<path fill="#FFFFFF" d="M74.1,107.2c3.6,0,4.1-0.8,4.7-0.8c1.2,0.4,3.4,0.4,4.9,0.1c1.4,1.1,3.3,2.9,15.1-2.7
		c2.1,0.3,5.2,1.4,8.8,1.5c2.3,2.9,4.7,4.8,8.9,4.4c3.4,1.2,4.7,1.1,4.7,1.1l0.1,0.1c0.5-0.2,0.9-0.3,1.4-0.3c0.6,0,1.3,0.2,1.8,0.4
		c0,0,0,0,0,0c1.6,0.1,15,0.9,23.8-1.1c8.8-2,18.7-7.2,24-11.2c5.3-4,18.1-18.6,19.5-32.3c1.4-13.7-2-21.7-4.6-28.7
		c-2.6-7-0.3-11.7,0.8-14c1.1-2.3,2.1-7.7,2.2-8.4c0.1-0.7,7.8-10.4,7.8-10.4s-3.8-3.3-18.1-4.3c-1.5-0.7-9.6-2.7-22.5,6.6
		c-12.9,9.3-9.1,20.3-21,32.4c-11.9,12.1-23.1,27.6-25.5,30.1c-2.5,2.5-8.9,7.3-8.9,11.8c2.6-2.2,2.6-2.2,2.6-2.2l0.1,1.5h3.4
		c0,0-6.3,6.6-10,9.1C94.4,92.4,76.7,106,74.1,107.2z M171.9,12.4c1.1-5.8,5.9-5.2,5.9-5.2s3.1,2.8,0.8,6.5
		C176.4,15,174.6,14.4,171.9,12.4z"/>
	<path fill="#FFFFFF" d="M317.1,89.9c-3.7-2.5-10-9.1-10-9.1h3.4l0.1-1.5c0,0,0,0,2.6,2.2c0-4.5-6.5-9.3-8.9-11.8
		c-2.5-2.5-13.6-18-25.5-30.1c-11.9-12.1-8.1-23.1-21-32.4c-12.9-9.3-21-7.3-22.5-6.6c-14.3,1-18.1,4.3-18.1,4.3s7.7,9.7,7.8,10.4
		c0.1,0.7,1.1,6,2.2,8.4c1.1,2.3,3.4,7,0.8,14c-2.6,7-6,15-4.6,28.7c1.4,13.7,14.2,28.3,19.5,32.3c5.3,4,15.2,9.2,24,11.2
		c8.8,2,22.1,1.2,23.8,1.1c0,0,0,0,0,0c0.5-0.3,1.2-0.4,1.8-0.4c0.5,0,1,0.1,1.4,0.3l0.1-0.1c0,0,1.2,0.1,4.7-1.1
		c4.3,0.4,6.6-1.5,8.9-4.4c3.6-0.1,6.7-1.2,8.8-1.5c11.8,5.6,13.7,3.8,15.1,2.7c1.5,0.3,3.7,0.3,4.9-0.1c0.5,0,1.1,0.8,4.7,0.8
		C338.5,106,320.8,92.4,317.1,89.9z M236.6,13.7c-2.2-3.7,0.9-6.5,0.9-6.5s4.8-0.5,5.9,5.2C240.7,14.4,238.8,15,236.6,13.7z"/>
</g>
<rect x="0.7" y="267.9" fill="#FFFFFF" width="105" height="0.5"/>
<rect x="311.7" y="267.9" fill="#FFFFFF" width="105.2" height="0.5"/>
</svg>
